<svg xmlns="http://www.w3.org/2000/svg" viewBox="0 0 28.76 28.75"><defs><style>.cls-1{fill:none;stroke:#202020;stroke-miterlimit:10;stroke-width:0.75px;}.cls-2{fill:#ffc62a;}</style></defs><g id="Layer_2" data-name="Layer 2"><g id="Layer_1-2" data-name="Layer 1"><path class="cls-1" d="M16.2,19.48a3.52,3.52,0,0,1-2.14-.32,3.61,3.61,0,0,1-1.74-1.87,2.28,2.28,0,0,0,1.16-1c1.21-1.93.43-4.65,1.63-6.6v0a5.16,5.16,0,0,1,4.4-2.47h.58a5.16,5.16,0,0,1,4.39,2.47l0,0c1.2,2,.41,4.67,1.63,6.6a2.26,2.26,0,0,0,1.15,1,3.57,3.57,0,0,1-1.74,1.87,3.52,3.52,0,0,1-2.14.32"/><path class="cls-1" d="M21.4,19.48a3,3,0,0,0,2.5,2.29c.72.21,1.45.4,2.17.6a2.3,2.3,0,0,1,1.58,1.55l.71,3.42a.86.86,0,0,1-.84,1H12.08a.87.87,0,0,1-.84-1L12,23.92a2.28,2.28,0,0,1,1.58-1.55c.72-.2,1.45-.39,2.17-.6a3.06,3.06,0,0,0,2.5-2.29"/><path class="cls-1" d="M23.75,14.15a13.6,13.6,0,0,1-1.54,4.45h0A2.93,2.93,0,0,1,19.78,20h0a2.9,2.9,0,0,1-2.42-1.39h0a9.57,9.57,0,0,1-1.47-4c-.47-3.56,3.33-3.66,5.63-1.93a20.14,20.14,0,0,0,2.23,1.49"/><line class="cls-1" x1="11.92" y1="8.97" x2="4.5" y2="8.97"/><line class="cls-1" x1="11.92" y1="6.89" x2="4.5" y2="6.89"/><polyline class="cls-1" points="11.48 21.36 1.72 21.36 1.72 19.26"/><polyline class="cls-1" points="16.05 1.94 18.37 1.94 18.37 5.8"/><polyline class="cls-1" points="16.05 6.72 16.05 0.38 11.99 0.38"/><polyline class="cls-1" points="11.99 0.38 0.38 0.38 0.38 19.26 11.48 19.26"/><path class="cls-1" d="M10.12,1.26v.31a.51.51,0,0,1-.51.52H6.82a.52.52,0,0,1-.52-.52V1.26"/><path class="cls-2" d="M16.09,23h0l-1.22.33-1,.26a1,1,0,0,0-.64.62l-.59,2.79H27l-.59-2.79a1,1,0,0,0-.65-.62l-1-.26-1.21-.33h0a5.26,5.26,0,0,1-7.42,0Z"/></g></g></svg>