<svg xmlns="http://www.w3.org/2000/svg" viewBox="0 0 36.44 28.75"><defs><style>.cls-1{fill:none;stroke:#202020;stroke-miterlimit:10;stroke-width:0.75px;}.cls-2{fill:#ffc62a;}</style></defs><g id="Layer_2" data-name="Layer 2"><g id="Layer_1-2" data-name="Layer 1"><path class="cls-1" d="M24.11,10a8.3,8.3,0,1,0,2.52,6,8.16,8.16,0,0,0-.18-1.72"/><line class="cls-1" x1="18.35" y1="15.99" x2="28.69" y2="10.31"/><polyline class="cls-1" points="31.65 11.1 28.69 10.31 29.48 7.35"/><polyline class="cls-1" points="34 9.76 31.04 8.97 31.83 6.02"/><polyline class="cls-1" points="36.35 8.43 33.39 7.64 34.18 4.68"/><polyline class="cls-1" points="18.89 13.13 18.23 16.02 21.22 16.9"/><path class="cls-1" d="M21.61,18.68a4.23,4.23,0,1,1-4.12-6.83"/><path class="cls-1" d="M34.62,2.22A1.84,1.84,0,0,0,32.78.38H2.22A1.84,1.84,0,0,0,.38,2.22V25.87a2.51,2.51,0,0,0,2.5,2.51H32.12a2.51,2.51,0,0,0,2.5-2.51V12.2"/><path class="cls-1" d="M5,4.07a.33.33,0,0,0-.65,0,.33.33,0,1,0,.65,0Z"/><path class="cls-1" d="M8.65,4.07a.32.32,0,1,0-.32.33A.32.32,0,0,0,8.65,4.07Z"/><path class="cls-1" d="M12.32,4.07A.32.32,0,1,0,12,4.4.32.32,0,0,0,12.32,4.07Z"/><line class="cls-1" x1="0.38" y1="7.7" x2="12" y2="7.7"/><path class="cls-2" d="M2.88,26.74h8.34L2,17.53v8.34A.87.87,0,0,0,2.88,26.74Z"/></g></g></svg>