<svg xmlns="http://www.w3.org/2000/svg" viewBox="0 0 30.63 28.75"><defs><style>.cls-1{fill:none;stroke:#202020;stroke-linecap:round;stroke-width:.75px;stroke-linejoin:round}</style></defs><g id="Layer_2" data-name="Layer 2"><g id="Layer_1-2" data-name="Layer 1"><path class="cls-1" d="M15.49 17.74a.18.18 0 0 1-.35 0 .18.18 0 0 1 .35 0ZM16.59 19.58v6.2M14.04 25.78v-6.2"/><path d="M28.82 1.8a171.65 171.65 0 0 1-27 0v3h27Z" style="fill:#ffc62a"/><path class="cls-1" d="M15.49 13.24H14.2v-5c1.18-.11 2.91 0 2.89 1.6.03 1.24.22 3.44-1.6 3.4ZM8.68 13.24l1.53-5.01M11.74 13.24l-1.53-5.01M9.1 11.85h2.21M19.07 12.27h0a.9.9 0 0 0 .67.87c2.87.6 2.39-2.42.88-2.48C19.05 10.18 19.49 9 19.49 9c.42-1.15 2.36-1 2.41.15h0"/><path d="M20.28 25.78h-9.94a2.18 2.18 0 0 0-2.07 2.6h14.09a2.19 2.19 0 0 0-2.08-2.6Z" style="stroke-miterlimit:10;fill:none;stroke:#202020;stroke-linecap:round;stroke-width:.75px"/><path class="cls-1" d="M30.25 20.15a188.53 188.53 0 0 0-29.87 0V.38a190.94 190.94 0 0 0 29.87 0Z"/></g></g></svg>