<svg xmlns="http://www.w3.org/2000/svg" viewBox="0 0 34.99 28.74"><defs><style>.cls-1{fill:none;stroke:#202020;stroke-miterlimit:10;stroke-width:.75px}</style></defs><g id="Layer_2" data-name="Layer 2"><g id="Layer_1-2" data-name="Layer 1"><path class="cls-1" d="M32.22 13c-6.7 4.73-11.7-3.07-11.7-3.07-2.37-3.41-4.07.11-4.07.11-1.24 3.19-3 2.9-4.1 2.36a1.34 1.34 0 0 1-.62-1.54l.8-2.89a4.43 4.43 0 0 1 2.36-2.84l3-1.4a5.07 5.07 0 0 1 3.41-.1l7.88 2 5.62-2.28M34.8 15.31l-6.11 3.48M25.38 15.38l4.15 4.51a1.78 1.78 0 0 1 .26 1.61 1.78 1.78 0 0 1-3 .68l-6.19-6.87M17.89 18.54l5.17 5.69a2.62 2.62 0 0 0 4.48-1v-.1M15.41 21.22l4.28 5a2.65 2.65 0 0 0 1.84 1 2.87 2.87 0 0 0 2.68-1.75M20.13 26.73v.06a1.73 1.73 0 0 1-2.95 1L4.66 14.48.1 13.19"/><path class="cls-1" d="m6.69 16.64-2.23 2.57a1.46 1.46 0 0 0 .15 2.05 1.46 1.46 0 0 0 2.08-.17"/><path class="cls-1" d="m9.83 22.72-1.15 1.33a1.62 1.62 0 0 1-2.34.14 1.83 1.83 0 0 1-.17-2.5l2.12-2.45"/><path class="cls-1" d="m10.86 21.55-1.77 2a1.83 1.83 0 0 0 .09 2.48 1.62 1.62 0 0 0 2.36-.03l.78-.87"/><path class="cls-1" d="m15.72 26.3-1.53 1.56a1.52 1.52 0 0 1-2.22 0 1.73 1.73 0 0 1-.06-2.34l1.46-1.63M16.34 4.3 1.71.36"/><path d="M19.19 10.88a2.22 2.22 0 0 0-.74-.76 2.08 2.08 0 0 0-.53.62A5.6 5.6 0 0 1 15 14.15a3.7 3.7 0 0 1-1.36.26 4.32 4.32 0 0 1-2-.52 2.59 2.59 0 0 1-.39-.25 3.34 3.34 0 0 0 .39 1.53 3.08 3.08 0 0 0 2.66 1.61 5.23 5.23 0 0 0 2.74-1 20.32 20.32 0 0 0 3.63-3.05 13.85 13.85 0 0 1-1.48-1.85Z" style="fill:#ffc62a"/></g></g></svg>