<svg xmlns="http://www.w3.org/2000/svg" viewBox="0 0 28.75 28.75"><defs><style>.cls-1{fill:none;stroke:#202020;stroke-miterlimit:10;stroke-width:.75px}</style></defs><g id="Layer_2" data-name="Layer 2"><g id="Layer_1-2" data-name="Layer 1"><path class="cls-1" d="m23.53 21.28 4.38 4.38a1.59 1.59 0 0 1 0 2.25 1.59 1.59 0 0 1-2.25 0l-4.38-4.38"/><path class="cls-1" d="M17.36 25.64a13.77 13.77 0 0 0 8.28-8.27"/><path class="cls-1" d="M24.39 12.38a12 12 0 1 0-12 12 12 12 0 0 0 12-12Z"/><path class="cls-1" d="M9.93 12.38a2.46 2.46 0 1 0 2.45-2.45 2.46 2.46 0 0 0-2.45 2.45Z"/><path d="M12.38 12.38a1.61 1.61 0 0 1 1.41.82 1.63 1.63 0 1 0-2.82 0 1.63 1.63 0 0 1 1.41-.82Z" style="fill:#ffc62a"/><path class="cls-1" d="M16.36 14.77a4.59 4.59 0 0 0 0-4.84M8.38 10a4.57 4.57 0 0 0-.64 2.35 4.63 4.63 0 0 0 .56 2.25"/><path class="cls-1" d="M12.38 7.74s4.42-.21 8 4.64c-3.58 4.86-8 4.65-8 4.65s-4.41.21-8-4.65c3.62-4.85 8-4.64 8-4.64Z"/></g></g></svg>