<svg xmlns="http://www.w3.org/2000/svg" viewBox="0 0 22.6 28.93"><defs><style>.cls-1{fill:none;stroke:#202020;stroke-linecap:round;stroke-miterlimit:10;stroke-width:.75px}</style></defs><g id="Layer_2" data-name="Layer 2"><g id="Layer_1-2" data-name="Layer 1"><path class="cls-1" d="M5.8 11.54h-1a1.68 1.68 0 0 1-1.7-1.68V9a1.68 1.68 0 0 1 1.68-1.73h1.39M16.8 11.54h1a1.68 1.68 0 0 0 1.7-1.68V9a1.68 1.68 0 0 0-1.68-1.68h-1.39"/><path class="cls-1" d="M4.68 7.27A6.62 6.62 0 0 1 11.3.38h0a6.62 6.62 0 0 1 6.62 6.89M22.22 25.84v-3.76a4.67 4.67 0 0 0-.66-2.45 4.1 4.1 0 0 0-.92-1 52.24 52.24 0 0 0-5.41-3.34M7.37 15.26A52.24 52.24 0 0 0 2 18.6a4.1 4.1 0 0 0-.92 1 4.67 4.67 0 0 0-.66 2.45v3.76"/><path class="cls-1" d="M16.8 10.49c0 3.77-2.46 6.83-5.5 6.83s-5.5-3.06-5.5-6.83 2.46-6.83 5.5-6.83 5.5 3.05 5.5 6.83Z"/><path d="M11.3 4.86a3.28 3.28 0 0 0-1.17.21c1.8.67 3.13 2.84 3.13 5.42s-1.33 4.74-3.13 5.41a3.28 3.28 0 0 0 1.17.21c2.37 0 4.3-2.52 4.3-5.62s-1.93-5.63-4.3-5.63Z" style="fill:#ffc62a"/><path class="cls-1" d="m10.15 18.63-1.19 7.22 2.34 2.53 2.34-2.53-1.19-7.22"/></g></g></svg>