<svg xmlns="http://www.w3.org/2000/svg" viewBox="0 0 25.27 28.75"><defs><style>.cls-1{fill:none;stroke:#202020;stroke-linecap:round;stroke-linejoin:round;stroke-width:.75px}</style></defs><g id="Layer_2" data-name="Layer 2"><g id="Layer_1-2" data-name="Layer 1"><path class="cls-1" d="M17.63 28.38a7.12 7.12 0 0 0 6.45-4 7.84 7.84 0 0 0 .82-3.16A12.23 12.23 0 0 0 22.43 14l-5.3-8.6H8.25L2.84 14a12.15 12.15 0 0 0-2.46 7.23v.08a7.18 7.18 0 0 0 7.2 7.07ZM17.13 5.4l3.29-3.18L19.24 1A2.25 2.25 0 0 0 16 1l-.95 1-.42-.42a2.79 2.79 0 0 0-3.95 0L10.3 2l-.95-1a2.25 2.25 0 0 0-3.2 0L5 2.22 8.25 5.4"/><path class="cls-1" d="M10.49 19.08a2.2 2.2 0 0 0 4.4 0c0-1.22-.9-1.78-2.2-2.2-1.15-.38-2.2-1-2.2-2.2a2.2 2.2 0 0 1 4.4 0M12.69 11.26v1.24M12.69 21.28v1.24"/><path d="m20.68 15.26-.05-.07-2.69-4.35c.68 2.85 1.93 5.68 2 8.61a10.67 10.67 0 0 1-2.08 6.4l-.28.35h.08a5 5 0 0 0 4.49-2.74 5.7 5.7 0 0 0 .6-2.23 10 10 0 0 0-2.07-5.97Z" style="fill:#ffc62a"/></g></g></svg>