<svg xmlns="http://www.w3.org/2000/svg" viewBox="0 0 27.57 28.75"><defs><style>.cls-1{fill:none;stroke:#202020;stroke-miterlimit:10;stroke-width:.75px}</style></defs><g id="Layer_2" data-name="Layer 2"><g id="Layer_1-2" data-name="Layer 1"><path class="cls-1" d="m11.6 7.28-7.06 7.05 2.42 2.42 6.79-6.8 4.61 4.61 3.91-3.91 3.36-3.36 1.56 1.55V3.19h-5.66l1.69 1.69-4.86 4.85-4.61-4.61-2.15 2.16"/><path d="m6.38 14.33.58.59L12.84 9l.91-.92.92.92 3.69 3.69 3-3 3.37-3.37.91-.91.27.27v-1.2h-1.25l.39.4-.92.91-4.85 4.86-.92.91-.91-.91L13.75 7l-1.24 1.2Z" style="fill:#ffc62a"/><path class="cls-1" d="M24.93 2.18a1.8 1.8 0 0 0-1.81-1.8H2.47a1.79 1.79 0 0 0-1.8 1.8v14.4a1.8 1.8 0 0 0 1.8 1.81h20.65a1.81 1.81 0 0 0 1.81-1.81V10M6.61 18.39l-1.1 2.79h14.58l-1.11-2.79M23 23.29l2.11 3.81a.86.86 0 0 1-.75 1.28H1.24a.87.87 0 0 1-.76-1.28l2.12-3.81Z"/></g></g></svg>