<svg xmlns="http://www.w3.org/2000/svg" viewBox="0 0 27.46 28.75"><defs><style>.cls-1{fill:none;stroke:#202020;stroke-miterlimit:10;stroke-width:.75px}</style></defs><g id="Layer_2" data-name="Layer 2"><g id="Layer_1-2" data-name="Layer 1"><path class="cls-1" d="M6.15 18.79A8.76 8.76 0 0 1 5 14.41"/><ellipse class="cls-1" cx="13.73" cy="12.12" rx="2.91" ry="3.61"/><path class="cls-1" d="M15.8 14.65a26.56 26.56 0 0 1 2.86 1.76 2.29 2.29 0 0 1 .49.54 2.46 2.46 0 0 1 .35 1.3v2.68a8.66 8.66 0 0 1-5.77 2.23A8.54 8.54 0 0 1 8 20.93v-2.68A2.46 2.46 0 0 1 8.31 17a2.24 2.24 0 0 1 .48-.54 26.56 26.56 0 0 1 2.86-1.76M22.48 14.41a8.76 8.76 0 0 1-1.17 4.38"/><path class="cls-1" d="M2.72 14.39v.06A6.17 6.17 0 0 1 1 18.8l-.54.57 2.34 4.05.77-.19a6.2 6.2 0 0 1 4.61.69h.05a6.23 6.23 0 0 1 2.93 3.67l.22.76h4.68l.22-.77A6.26 6.26 0 0 1 19.21 24a6.26 6.26 0 0 1 4.63-.7l.77.19L27 19.37l-.55-.57a6.31 6.31 0 0 1-1.71-4.37M5 14.34a8.75 8.75 0 0 1 17.5 0"/><path class="cls-1" d="M24.73 14.36v-.06a6.26 6.26 0 0 1 1.71-4.3l.56-.62-2.35-4.05-.77.19a6.23 6.23 0 0 1-4.62-.69 6.23 6.23 0 0 1-2.93-3.67l-.26-.78h-4.68l-.22.76A6.29 6.29 0 0 1 8.25 4.8a6.27 6.27 0 0 1-4.63.7l-.77-.19L.47 9.38 1 10a6.22 6.22 0 0 1 1.71 4.37v.06"/><path d="M9.22 18.59v1.75a7.26 7.26 0 0 0 4.51 1.56 7.35 7.35 0 0 0 4.51-1.56v-1.75a8 8 0 0 1-9 0Z" style="fill:#ffc62a"/></g></g></svg>