<svg xmlns="http://www.w3.org/2000/svg" viewBox="0 0 36.44 28.75"><defs><style>.cls-1{fill:none;stroke:#202020;stroke-miterlimit:10;stroke-width:.75px}</style></defs><g id="Layer_2" data-name="Layer 2"><g id="Layer_1-2" data-name="Layer 1"><path class="cls-1" d="M24.11 10a8.3 8.3 0 1 0 2.52 6 8.16 8.16 0 0 0-.18-1.72M18.35 15.99l10.34-5.68M31.65 11.1l-2.96-.79.79-2.96M34 9.76l-2.96-.79.79-2.95M36.35 8.43l-2.96-.79.79-2.96"/><path class="cls-1" d="m18.89 13.13-.66 2.89 2.99.88"/><path class="cls-1" d="M21.61 18.68a4.23 4.23 0 1 1-4.12-6.83"/><path class="cls-1" d="M34.62 2.22A1.84 1.84 0 0 0 32.78.38H2.22A1.84 1.84 0 0 0 .38 2.22v23.65a2.51 2.51 0 0 0 2.5 2.51h29.24a2.51 2.51 0 0 0 2.5-2.51V12.2"/><path class="cls-1" d="M5 4.07a.33.33 0 0 0-.65 0 .33.33 0 1 0 .65 0ZM8.65 4.07a.32.32 0 1 0-.32.33.32.32 0 0 0 .32-.33ZM12.32 4.07a.32.32 0 1 0-.32.33.32.32 0 0 0 .32-.33ZM.38 7.7H12"/><path d="M2.88 26.74h8.34L2 17.53v8.34a.87.87 0 0 0 .88.87Z" style="fill:#ffc62a"/></g></g></svg>