<svg xmlns="http://www.w3.org/2000/svg" viewBox="0 0 27.53 28.75"><defs><style>.cls-4{fill:none;stroke:#202020;stroke-width:.75px;stroke-linecap:round;stroke-linejoin:round}</style></defs><g id="Layer_2" data-name="Layer 2"><g id="Layer_1-2" data-name="Layer 1"><circle cx="13.76" cy="14.37" r="8.77" style="stroke-miterlimit:10;fill:none;stroke:#202020;stroke-width:.75px"/><path d="M13.76 21.73a7.36 7.36 0 1 1 7.36-7.35 7.36 7.36 0 0 1-7.36 7.35Zm0-13.73a6.41 6.41 0 1 0 6.41 6.41A6.41 6.41 0 0 0 13.76 8Z" style="fill:#ffc62a"/><path d="m26.51 10 .55-.57-2.35-4.09-.77.19a6.26 6.26 0 0 1-4.63-.69h0a6.24 6.24 0 0 1-2.94-3.67l-.26-.79h-4.69l-.22.76a6.26 6.26 0 0 1-2.93 3.67h0a6.24 6.24 0 0 1-4.64.7l-.78-.19L.47 9.41 1 10a6.27 6.27 0 0 1 1.71 4.38v.05A6.24 6.24 0 0 1 1 18.77l-.55.57 2.34 4.07.77-.19a6.25 6.25 0 0 1 4.63.69h0a6.28 6.28 0 0 1 2.94 3.67l.22.77h4.69l.22-.77a6.26 6.26 0 0 1 2.93-3.67h0a6.24 6.24 0 0 1 4.64-.7l.77.19 2.35-4.07-.55-.57a6.23 6.23 0 0 1-1.71-4.38v-.05A6.24 6.24 0 0 1 26.51 10Z" style="stroke-linecap:round;stroke-miterlimit:10;fill:none;stroke:#202020;stroke-width:.75px"/><path class="cls-4" d="M9 15a1 1 0 0 0 2 0c0-.83-1-1-1-1s-1-.26-1-1a1 1 0 1 1 2 0M17.35 16h0a1.19 1.19 0 0 1-1.19-1.19V13.1a1.19 1.19 0 0 1 1.19-1.19h0a1.19 1.19 0 0 1 1.19 1.19v1.73A1.19 1.19 0 0 1 17.35 16ZM12.92 11.91v4.11M12.92 13.97h1.64M12.92 11.91h1.64M12.92 16.02h1.64"/></g></g></svg>