<svg xmlns="http://www.w3.org/2000/svg" viewBox="0 0 32.9 28.75"><defs><style>.cls-1,.cls-3{fill:none;stroke:#202020;stroke-linecap:round;stroke-width:.75px}.cls-1{stroke-linejoin:round}.cls-3{stroke-miterlimit:10}</style></defs><g id="Layer_2" data-name="Layer 2"><g id="Layer_1-2" data-name="Layer 1"><path class="cls-1" d="M23.92 24.68H2.41a2 2 0 0 1-2-2V2A1.59 1.59 0 0 1 2 .38h26.5A1.59 1.59 0 0 1 30.1 2v18.08"/><path class="cls-1" d="M4.37 3.59a.27.27 0 0 0-.28-.28.28.28 0 0 0-.28.28.29.29 0 0 0 .28.28.28.28 0 0 0 .28-.28ZM7.56 3.59a.28.28 0 0 0-.28-.28.27.27 0 0 0-.28.28.28.28 0 0 0 .28.28.29.29 0 0 0 .28-.28ZM10.75 3.59a.28.28 0 0 0-.28-.28.27.27 0 0 0-.28.28.28.28 0 0 0 .28.28.29.29 0 0 0 .28-.28ZM30.55 24.17l1.98-1.97-8.44-2.27 2.26 8.45 1.97-1.98M29.96 25.81l2.47 2.47M14.96 9.49l5.37 3.05-5.37 3.1-5.38-3.1 5.38-3.05z"/><path style="fill:#ffc62a" d="m12.27 12.55 2.69-1.52 2.68 1.52-2.68 1.55-2.69-1.55z"/><path class="cls-3" d="m14.96 21.86-5.38-3.11v-6.21M14.96 21.86l5.37-3.11v-6.21M14.95 15.65v4.12"/><path class="cls-1" d="M.38 6.74H30.1"/></g></g></svg>