<svg xmlns="http://www.w3.org/2000/svg" viewBox="0 0 31.54 28.75"><defs><style>.cls-1{fill:none;stroke:#202020;stroke-linecap:round;stroke-miterlimit:10;stroke-width:.75px}.cls-2{fill:#ffc62a}</style></defs><g id="Layer_2" data-name="Layer 2"><g id="Layer_1-2" data-name="Layer 1"><circle class="cls-1" cx="7.71" cy="25.51" r="2.87"/><path class="cls-1" d="M25.49 25.51a2.87 2.87 0 1 0-2.87 2.87 2.86 2.86 0 0 0 2.87-2.87ZM10.58 25.51h9.18M27.23 20.56h3.66"/><path class="cls-1" d="M26.06 25.51h5.11V24a32.44 32.44 0 0 0-1.82-10c-.45-1.34-1-2.08-2.12-2.08h-3.75v8H.38v4A1.67 1.67 0 0 0 2 25.51h2.78"/><path class="cls-1" d="M.38 17.98v-7.86h9.67v7.86"/><path class="cls-2" d="M3.58 11.85v4.89l1.63-1.26 1.64 1.26v-4.89H3.58z"/><path class="cls-1" d="M10.05 10.12h9.67v7.86"/><path class="cls-2" d="M13.25 11.85v4.89l1.63-1.26 1.64 1.26v-4.89h-3.27zM8.41 2.09v4.88l1.64-1.26 1.64 1.26V2.09H8.41z"/><path class="cls-1" d="M5.21 10.05V.38h9.67v9.67"/></g></g></svg>