<svg xmlns="http://www.w3.org/2000/svg" viewBox="0 0 33.25 29.1"><defs><style>.cls-1{fill:none;stroke:#202020;stroke-miterlimit:10;stroke-width:.75px}</style></defs><g id="Layer_2" data-name="Layer 2"><g id="Layer_1-2" data-name="Layer 1"><path class="cls-1" d="M23.92 24.68H2.41a2 2 0 0 1-2-2V2A1.59 1.59 0 0 1 2 .38h26.5A1.59 1.59 0 0 1 30.1 2v18.08"/><path class="cls-1" d="M4.37 3.59a.27.27 0 0 0-.28-.28.28.28 0 0 0-.28.28.29.29 0 0 0 .28.28.28.28 0 0 0 .28-.28ZM7.56 3.59a.28.28 0 0 0-.28-.28.27.27 0 0 0-.28.28.28.28 0 0 0 .28.28.29.29 0 0 0 .28-.28Z"/><circle class="cls-1" cx="10.47" cy="3.59" r=".28"/><path class="cls-1" d="m30.55 24.17 1.98-1.97-8.44-2.27 2.26 8.45 1.97-1.98M29.96 25.81l2.47 2.47M.38 6.74H30.1"/><path d="M2.41 23.26h7.48l-8.1-8.09v7.47a.62.62 0 0 0 .62.62Z" style="fill:#ffc62a"/><path class="cls-1" d="M9.29 15.89a6 6 0 1 1 11.9 0"/><path class="cls-1" d="M13.6 11.21a6.9 6.9 0 0 0-1.55 4.68M16.88 11.21a7 7 0 0 1 1.55 4.68"/><path class="cls-1" d="M15.24 13.34c-3.29 0-4.14-1.73-4.14-1.73"/><path class="cls-1" d="M19.38 11.61s-.86 1.73-4.14 1.73M15.24 20.46v-9.25M21.19 15.89a5.95 5.95 0 1 1-11.9 0"/><path class="cls-1" d="M17 20.46a7 7 0 0 0 1.46-4.57M13.5 20.46a7 7 0 0 1-1.45-4.57"/><path class="cls-1" d="M19.38 20.17s-.86-1.72-4.14-1.72M11.1 20.17s.85-1.72 4.14-1.72"/></g></g></svg>