<svg xmlns="http://www.w3.org/2000/svg" viewBox="0 0 31.54 28.91"><defs><style>.cls-1{fill:none;stroke:#202020;stroke-linecap:round;stroke-miterlimit:10;stroke-width:.75px}</style></defs><g id="Layer_2" data-name="Layer 2"><g id="Layer_1-2" data-name="Layer 1"><path class="cls-1" d="M.38.38H20.6v11.58H.38z"/><path class="cls-1" d="M7.47 9.18a4.26 4.26 0 0 1 0-6M13.5 3.15a4.26 4.26 0 0 1 0 6M17.12 6.46a.25.25 0 1 1 .24.24.25.25 0 0 1-.24-.24ZM3.36 6.46a.25.25 0 1 1 .24.24.25.25 0 0 1-.24-.24ZM9.31 7.34a1.18 1.18 0 1 0 2.35 0c0-.65-.48-1-1.18-1.18S9.31 5.64 9.31 5a1.18 1.18 0 1 1 2.35 0M10.48 3.15v.67M10.48 8.52v.66M12.62 17.12 4.24 25.5l2.87 2.88 8.08-8.08 5.47 5.48 4.65-4.65 4-4 1.85 1.85v-6.72h-6.73l2.01 2-5.78 5.78-5.47-5.48-2.57 2.56"/><path d="m6.42 25.51.69.69 7-7 1.09-1.09 1.08 1.09 4.39 4.39L24.22 20l4-4 1.08-1 .33.32V13.8h-1.48l.46.46-1.08 1.09-5.78 5.78-1.09 1.08-1.08-1.08-4.39-4.39-1.48 1.47Z" style="fill:#ffc62a"/></g></g></svg>