<svg xmlns="http://www.w3.org/2000/svg" viewBox="0 0 26.04 28.64"><defs><style>.cls-2{fill:none;stroke:#354254;stroke-linecap:round;stroke-width:.64px;stroke-miterlimit:10}</style></defs><g id="Layer_2" data-name="Layer 2"><g id="Layer_1-2" data-name="Layer 1"><path style="stroke-linejoin:round;fill:none;stroke:#354254;stroke-linecap:round;stroke-width:.64px" d="M12.95 8.69V5.37h-2.62L14.61.32l4.27 5.05h-2.61v3.32"/><path class="cls-2" d="M4.18 9.92 3.33 7.7a2 2 0 0 0-1.9-1.31H.32M12.91 26.64A1.68 1.68 0 1 1 11.23 25a1.68 1.68 0 0 1 1.68 1.64Z"/><circle class="cls-2" cx="19.47" cy="26.64" r="1.68"/><path class="cls-2" d="M10.34 20.56h12.72l2.56-8a2 2 0 0 0-1.94-2.66H4.18L7.81 21a2.79 2.79 0 0 0 2.65 1.92h11.17M14.07 11.34l2.52 7.8M19.37 11.34l2.26 7.8M9.08 11.34l2.52 7.79M6.05 15.11h12.86"/><path d="M24.37 12.18a.73.73 0 0 0-.11-.65.7.7 0 0 0-.58-.29h-2.6l2 5.08Z" style="fill:#ffc62a"/></g></g></svg>