<svg xmlns="http://www.w3.org/2000/svg" viewBox="0 0 27.48 26.35"><defs><style>.cls-2{fill:none;stroke:#354254;stroke-linecap:round;stroke-width:.64px;stroke-miterlimit:10}</style></defs><g id="Layer_2" data-name="Layer 2"><g id="Layer_1-2" data-name="Layer 1"><path style="stroke-linejoin:round;fill:none;stroke:#354254;stroke-linecap:round;stroke-width:.64px" d="M19.76 26.02v-4.13h-3.25l5.32-6.28 5.33 6.28H23.9v4.13"/><path class="cls-2" d="M8.59 14.06A3.9 3.9 0 1 0 11.7 7.8M10 5.53a6.39 6.39 0 0 0-4.69 5.82 6.33 6.33 0 0 0 .36 2.5"/><path class="cls-2" d="M12 11.7a.29.29 0 0 1-.3.3.3.3 0 0 1-.3-.3.31.31 0 0 1 .3-.3.3.3 0 0 1 .3.3Z"/><path class="cls-2" d="M11.7 4.34v7.36l-5.81 4.4"/><path class="cls-2" d="M15 22.6a11.38 11.38 0 1 1 8.1-10.9 11.75 11.75 0 0 1-.31 2.67M.32 11.7h1.54M21.54 11.7h1.54M11.7.32v1.54M11.7 21.54v1.54"/><path d="M19.66 12.31a.61.61 0 0 1-.61-.61 7.4 7.4 0 0 0-5.74-7.17.6.6 0 0 1-.46-.72.61.61 0 0 1 .72-.47 8.62 8.62 0 0 1 6.69 8.36.6.6 0 0 1-.6.61Z" style="fill:#ffc62a"/></g></g></svg>